<?xml version="1.0" standalone="no"?>
<!DOCTYPE svg PUBLIC "-//W3C//DTD SVG 20010904//EN"
 "http://www.w3.org/TR/2001/REC-SVG-20010904/DTD/svg10.dtd">
<svg version="1.0" xmlns="http://www.w3.org/2000/svg"
 width="300.000000pt" height="300.000000pt" viewBox="0 0 300.000000 300.000000"
 preserveAspectRatio="xMidYMid meet">
<metadata>
Created by potrace 1.10, written by Peter Selinger 2001-2011
</metadata>
<g transform="translate(0.000000,300.000000) scale(0.100000,-0.100000)"
fill="#000000" stroke="none">
<path d="M2133 1760 c15 -10 17 -27 16 -143 0 -73 0 -140 0 -149 1 -14 9 -18
39 -17 20 1 29 3 20 6 -15 4 -18 22 -20 156 l-3 152 -35 3 c-29 2 -32 0 -17
-8z"/>
<path d="M678 1740 c21 -9 22 -14 22 -140 0 -126 -1 -131 -22 -140 -18 -7 -11
-9 32 -9 42 0 51 2 38 10 -16 9 -18 27 -18 144 l0 135 24 0 c34 0 51 -27 50
-78 -1 -34 -7 -50 -23 -63 l-22 -18 30 -59 c27 -54 45 -72 71 -72 5 0 -8 30
-30 67 l-38 66 24 19 c19 15 24 29 24 61 0 23 -4 47 -8 53 -15 23 -53 34 -114
33 -48 0 -58 -2 -40 -9z"/>
<path d="M1273 1740 c15 -10 17 -28 17 -140 0 -112 -2 -130 -17 -139 -26 -15
99 -14 131 0 51 24 55 123 5 136 -21 6 -21 6 2 24 17 12 23 27 23 53 0 55 -22
70 -107 74 -55 2 -68 0 -54 -8z m111 -16 c9 -8 16 -31 16 -49 0 -40 -22 -65
-56 -65 -23 0 -24 3 -24 58 0 32 3 62 7 65 11 12 41 7 57 -9z m17 -151 c13
-33 5 -93 -13 -105 -7 -4 -25 -8 -40 -8 -28 0 -28 0 -28 70 l0 70 35 0 c29 0
37 -5 46 -27z"/>
<path d="M920 1660 c-26 -26 -34 -60 -28 -121 6 -61 29 -89 75 -89 58 0 87 62
72 155 -12 67 -76 98 -119 55z m80 -16 c6 -14 10 -49 10 -79 0 -73 -13 -105
-44 -105 -13 0 -27 7 -30 16 -11 29 -7 169 6 182 20 20 48 14 58 -14z"/>
<path d="M1074 1660 c7 -8 29 -60 49 -115 32 -92 34 -103 22 -133 -8 -19 -27
-38 -47 -47 l-33 -15 30 6 c39 7 44 13 65 73 16 49 16 50 -12 137 -18 55 -25
91 -19 98 6 8 -2 11 -30 11 -34 1 -37 -1 -25 -15z"/>
<path d="M1201 1670 c15 -9 15 -15 -2 -77 -11 -37 -18 -72 -16 -77 2 -5 11 22
21 60 11 38 26 77 34 87 14 16 13 17 -19 17 -26 -1 -30 -3 -18 -10z"/>
<path d="M1483 1670 c14 -9 17 -27 17 -110 0 -85 -2 -99 -17 -103 -10 -3 7 -5
37 -5 30 0 47 2 38 5 -16 4 -18 18 -18 109 0 96 -1 104 -19 104 -11 0 -28 3
-38 6 -17 5 -17 5 0 -6z"/>
<path d="M1560 1670 c-13 -8 -12 -10 3 -10 11 0 21 -9 24 -20 6 -24 21 -26 29
-5 7 17 -12 45 -30 45 -6 0 -18 -5 -26 -10z"/>
<path d="M1665 1660 c-9 -10 -15 -26 -12 -35 10 -24 24 -17 31 15 4 21 11 30
25 30 21 0 31 -18 31 -60 0 -24 -5 -28 -36 -33 -49 -8 -64 -23 -64 -66 0 -58
41 -81 82 -44 17 15 18 15 18 0 0 -12 9 -17 27 -17 21 0 24 3 15 12 -7 7 -12
45 -12 98 0 72 -3 90 -18 103 -25 23 -65 21 -87 -3z m75 -123 c0 -56 -48 -102
-64 -61 -18 46 5 94 45 94 15 0 19 -7 19 -33z"/>
<path d="M1828 1669 c8 -8 12 -46 12 -110 0 -84 -2 -98 -17 -102 -10 -3 7 -5
37 -5 30 0 47 2 38 5 -16 4 -18 18 -18 109 0 83 -3 104 -14 104 -8 0 -23 3
-33 6 -15 6 -16 4 -5 -7z"/>
<path d="M1901 1666 c-10 -12 -8 -13 9 -9 33 9 40 -12 40 -114 l0 -93 33 0
c26 1 29 2 15 11 -15 8 -18 25 -18 99 0 67 -4 92 -16 104 -19 20 -48 21 -63 2z"/>
<path d="M2074 1672 c-36 -24 -48 -157 -18 -200 15 -22 67 -31 78 -13 3 4 -6
6 -19 3 -33 -6 -48 33 -43 116 5 71 26 105 52 82 9 -7 16 -8 16 -2 0 18 -45
28 -66 14z"/>
</g>
</svg>
